<svg width="35" height="35" viewBox="0 0 35 35" fill="none" xmlns="http://www.w3.org/2000/svg">
<path d="M23.8663 9.35565C21.1101 9.35565 19.9452 10.6709 18.0257 10.6709C16.0576 10.6709 14.5565 9.36522 12.168 9.36522C9.83009 9.36522 7.33702 10.7926 5.75382 13.2241C3.53077 16.653 3.90812 23.1109 7.5086 28.6125C8.79649 30.5819 10.5164 32.7906 12.7723 32.8145H12.8133C14.7738 32.8145 15.3563 31.5308 18.0544 31.5157H18.0954C20.7532 31.5157 21.2864 32.807 23.2388 32.807H23.2798C25.5357 32.7831 27.3479 30.3358 28.6358 28.3739C29.5627 26.963 29.9072 26.2548 30.6182 24.6586C25.4099 22.6816 24.5732 15.2981 29.724 12.4674C28.1518 10.4986 25.9424 9.35839 23.8595 9.35839L23.8663 9.35565Z" fill="black"/>
<path d="M23.2592 2.1875C21.6186 2.29893 19.7046 3.34346 18.5835 4.70723C17.5663 5.94316 16.7296 7.77656 17.0577 9.55459H17.1889C18.9362 9.55459 20.7245 8.50254 21.769 7.15449C22.7753 5.87139 23.5381 4.05303 23.2592 2.1875Z" fill="black"/>
</svg>
