<svg width="35" height="35" viewBox="0 0 35 35" fill="none" xmlns="http://www.w3.org/2000/svg">
<path d="M3.28125 4.06672V30.932C3.28143 30.9902 3.29881 31.0472 3.33122 31.0956C3.36363 31.1441 3.40962 31.1819 3.46343 31.2043C3.51723 31.2267 3.57646 31.2327 3.63367 31.2216C3.69089 31.2105 3.74355 31.1827 3.78506 31.1418L17.7734 17.5L3.78506 3.85686C3.74355 3.81593 3.69089 3.78818 3.63367 3.77707C3.57646 3.76595 3.51723 3.77198 3.46343 3.7944C3.40962 3.81681 3.36363 3.85461 3.33122 3.90305C3.29881 3.9515 3.28143 4.00843 3.28125 4.06672ZM23.6387 11.8946L6.09902 2.23127L6.08809 2.22512C5.78594 2.06106 5.49883 2.46984 5.74629 2.70774L19.4954 15.8546L23.6387 11.8946ZM5.74766 32.2923C5.49883 32.5302 5.78594 32.939 6.08945 32.7749L6.10039 32.7688L23.6387 23.1055L19.4954 19.1441L5.74766 32.2923ZM30.7193 15.791L25.8214 13.0936L21.216 17.5L25.8214 21.9044L30.7193 19.209C32.0517 18.4728 32.0517 16.5273 30.7193 15.791Z" fill="black"/>
</svg>
